<svg xmlns="http://www.w3.org/2000/svg" viewBox="0 0 211.17 182.88"><defs><style>.cls-1{stroke:#000;stroke-miterlimit:10;}</style></defs><g id="Layer_2" data-name="Layer 2"><g id="Layer_1-2" data-name="Layer 1"><polygon class="cls-1" points="135.08 111.36 128.97 121.94 131.86 126.94 162.07 126.94 169.59 131.28 178.59 146.88 158.1 182.38 117.1 182.38 108.09 166.77 108.09 158.11 123.2 131.94 120.31 126.94 90.87 126.94 87.98 131.94 103.09 158.11 103.09 166.77 94.08 182.38 53.08 182.38 32.59 146.88 41.59 131.28 49.11 126.94 79.32 126.94 82.21 121.94 76.1 111.36 73.59 107.02 67.49 96.44 61.71 96.44 46.6 122.61 39.1 126.94 21.08 126.94 0.58 91.44 21.08 55.94 39.1 55.94 46.6 60.27 61.71 86.44 67.49 86.44 73.59 75.86 76.1 71.52 82.21 60.94 79.32 55.94 49.11 55.94 41.59 51.6 32.59 36 53.08 0.5 94.08 0.5 103.09 16.11 103.09 24.77 87.98 50.94 90.87 55.94 120.31 55.94 123.2 50.94 108.09 24.77 108.09 16.11 117.1 0.5 158.1 0.5 178.59 36 169.59 51.6 162.07 55.94 131.86 55.94 128.97 60.94 135.08 71.52 137.59 75.86 143.69 86.44 149.47 86.44 164.58 60.27 172.08 55.94 190.1 55.94 210.6 91.44 190.1 126.94 172.08 126.94 164.58 122.61 149.47 96.44 143.69 96.44 137.59 107.02 135.08 111.36"/></g></g></svg>